#!OML:ASF F:\VICON\USERDATA\INSTALL\rory3\rory3.ASF
:FULLY-SPECIFIED
:DEGREES
352
root 5.74768 17.8374 35.7989 -2.78375 -3.81665 1.21966
lowerback 11.5456 0.203917 -0.645797
upperback 0.592342 0.235654 0.826237
thorax -5.86519 0.143326 1.19271
lowerneck -15.402 -2.50583 -2.40926
upperneck 18.8811 -3.04263 0.784621
head 8.47003 -1.52985 0.30416
rclavicle -8.29926e-015 -3.18055e-015
rhumerus -29.4131 -22.0709 -78.3938
rradius 25.5018
rwrist 6.7043
rhand -15.6535 22.1155
rfingers 7.12502
rthumb 10.5344 -7.6005
lclavicle -8.29926e-015 -3.18055e-015
lhumerus -31.3259 -1.70764 82.8342
lradius 28.8865
lwrist 4.67401
lhand -25.2137 26.3301
lfingers 7.12502
lthumb 1.30516 56.3059
rfemur -26.6094 -0.538948 20.6818
rtibia 70.2682
rfoot -8.62487 -4.10134
rtoes 4.36403
lfemur -6.25831 0.720993 -27.0162
ltibia 30
lfoot -15.2816 0.663611
ltoes 0.119284
353
root 5.74419 17.8192 35.9723 -2.96203 -3.67846 1.61524
lowerback 11.8603 0.143373 -1.12315
upperback 0.560954 0.084816 0.741686
thorax -6.07152 0.0826659 1.39934
lowerneck -15.2102 -2.45797 -2.28078
upperneck 18.7244 -2.98953 0.68164
head 8.37782 -1.50721 0.257952
rclavicle 2.18663e-015 2.78299e-015
rhumerus -29.8188 -21.834 -78.4622
rradius 25.6103
rwrist 5.89207
rhand -15.1699 21.8461
rfingers 7.12502
rthumb 11.0009 -7.84562
lclavicle 2.18663e-015 2.78299e-015
lhumerus -31.1422 -2.46993 82.8069
lradius 29.3127
lwrist 5.84229
lhand -26.5411 23.9821
lfingers 7.12502
lthumb 0.0231617 53.9618
rfemur -27.29 -0.731165 20.3468
rtibia 69.0029
rfoot -9.50393 -4.069
rtoes 5.39981
lfemur -5.30006 0.70475 -27.494
ltibia 29.7592
lfoot -15.5433 0.623411
ltoes 2.80611
354
root 5.74364 17.8042 36.145 -2.99164 -3.51547 1.8102
lowerback 11.8487 0.0771333 -1.34414
upperback 0.559783 -0.0336317 0.727884
thorax -6.0623 0.0305006 1.52965
lowerneck -14.9646 -2.46221 -2.29123
upperneck 18.526 -2.99037 0.649035
head 8.26663 -1.51271 0.252779
rclavicle -7.05686e-015 -9.93923e-015
rhumerus -30.1051 -21.8861 -78.3502
rradius 25.5462
rwrist 5.78945
rhand -14.8887 22.0075
rfingers 7.12502
rthumb 11.2721 -7.66959
lclavicle -7.05686e-015 -9.93923e-015
lhumerus -30.7021 -3.43208 82.9054
lradius 29.3186
lwrist 6.92142
lhand -27.6367 21.3143
lfingers 7.12502
lthumb -1.035 51.2916
rfemur -28.0402 -0.9812 20.249
rtibia 67.5159
rfoot -10.2245 -4.13384
rtoes 4.10212
lfemur -4.46075 0.602842 -27.7723
ltibia 29.5807
lfoot -15.9407 0.718411
ltoes 3.68993
355
root 5.73633 17.7957 36.3075 -2.88537 -3.35558 1.66991
lowerback 11.7796 0.0119787 -1.34831
upperback 0.658904 -0.112968 0.838428
thorax -5.91574 -0.00884629 1.6607
lowerneck -15.1643 -2.56251 -2.47788
upperneck 18.4704 -3.12285 0.862685
head 8.29271 -1.5655 0.337248
rclavicle 1.13059e-014 4.37326e-015
rhumerus -30.0207 -21.6828 -78.416
rradius 25.5242
rwrist 5.63719
rhand -14.7502 19.7659
rfingers 7.12502
rthumb 11.4057 -9.90392
lclavicle 1.13059e-014 4.37326e-015
lhumerus -29.9243 -3.92034 82.7993
lradius 29.5238
lwrist 6.80725
lhand -26.8834 21.8879
lfingers 7.12502
lthumb -0.307494 51.8674
rfemur -28.9118 -1.01392 20.6019
rtibia 65.8101
rfoot -10.6393 -4.48206
rtoes 1.5583
lfemur -3.87875 0.670382 -27.6596
ltibia 29.2846
lfoot -16.3421 1.03174
ltoes 1.86584
356
root 5.72846 17.7907 36.4651 -2.65916 -3.10437 1.71995
lowerback 11.7253 -0.070352 -1.56116
upperback 0.736115 -0.245759 0.904084
thorax -5.79761 -0.0693602 1.87118
lowerneck -15.6161 -2.55657 -2.39708
upperneck 18.5004 -3.10272 0.771374
head 8.38051 -1.55738 0.290045
rclavicle 1.19768e-014 9.14409e-015
rhumerus -29.7897 -21.7062 -78.4608
rradius 25.4628
rwrist 5.70308
rhand -14.6329 18.3393
rfingers 7.12502
rthumb 11.5188 -11.3242
lclavicle 1.19768e-014 9.14409e-015
lhumerus -29.2947 -4.18869 82.6786
lradius 30.2645
lwrist 7.13409
lhand -26.973 22.1902
lfingers 7.12502
lthumb -0.393991 52.1696
rfemur -29.8629 -1.12122 20.6926
rtibia 63.8649
rfoot -11.2483 -4.74385
rtoes -0.721634
lfemur -3.46072 0.581011 -27.768
ltibia 28.8526
lfoot -16.4157 1.36766
ltoes -0.00304847
357
root 5.72832 17.7913 36.6334 -2.43049 -2.78084 2.12392
lowerback 11.6843 -0.234761 -2.04777
upperback 0.653772 -0.53148 0.845034
thorax -5.84536 -0.196315 2.13146
lowerneck -15.6188 -2.42351 -2.0987
upperneck 18.3826 -2.92897 0.475114
head 8.32869 -1.48505 0.163097
rclavicle -2.78299e-015 4.37326e-015
rhumerus -29.9119 -21.9079 -78.387
rradius 25.4053
rwrist 6.30096
rhand -14.6778 19.3984
rfingers 7.12502
rthumb 11.4755 -10.2675
lclavicle -2.78299e-015 4.37326e-015
lhumerus -29.1847 -4.66054 82.5726
lradius 31.1345
lwrist 8.07497
lhand -27.7888 21.8986
lfingers 7.12502
lthumb -1.18193 51.875
rfemur -30.6122 -1.47238 20.3071
rtibia 61.7047
rfoot -11.6495 -4.82203
rtoes -1.25525
lfemur -2.88328 0.276108 -28.2945
ltibia 28.3288
lfoot -16.5364 1.46527
ltoes 0.417527
358
root 5.72628 17.8024 36.808 -2.32252 -2.50551 2.32222
lowerback 11.6443 -0.410171 -2.33926
upperback 0.701517 -0.802495 0.831805
thorax -5.75482 -0.323802 2.32551
lowerneck -15.8454 -2.40221 -2.0993
upperneck 18.3608 -2.91115 0.556396
head 8.36293 -1.46733 0.189897
rclavicle 9.44227e-015 -5.1684e-015
rhumerus -30.0323 -21.6349 -78.6056
rradius 25.7012
rwrist 5.82665
rhand -15.3719 21.6986
rfingers 7.12502
rthumb 10.806 -8.0034
lclavicle 9.44227e-015 -5.1684e-015
lhumerus -28.6285 -4.57236 82.1751
lradius 31.4589
lwrist 7.76856
lhand -26.8791 23.566
lfingers 7.12502
lthumb -0.303356 53.5455
rfemur -31.0006 -1.6297 20.1609
rtibia 59.3269
rfoot -11.5123 -5.15386
rtoes -1.16613
lfemur -2.00337 -0.0710915 -28.5507
ltibia 27.5745
lfoot -16.5759 1.14988
ltoes 3.26555
359
root 5.71821 17.8068 36.9748 -2.11837 -2.34442 2.34573
lowerback 11.4163 -0.491318 -2.43726
upperback 0.827372 -0.914876 0.865062
thorax -5.48609 -0.382022 2.42823
lowerneck -16.2126 -2.4928 -2.27638
upperneck 18.4094 -3.03031 0.78012
head 8.45344 -1.51088 0.275041
rclavicle 8.00108e-015 -3.57812e-015
rhumerus -29.9303 -21.4316 -78.8076
rradius 25.795
rwrist 5.16579
rhand -16.0198 23.5553
rfingers 7.12502
rthumb 10.1811 -6.1783
lclavicle 8.00108e-015 -3.57812e-015
lhumerus -27.7421 -4.77733 81.8983
lradius 31.5835
lwrist 7.75069
lhand -26.3011 25.123
lfingers 7.12502
lthumb 0.25495 55.1026
rfemur -31.5511 -1.45249 20.2252
rtibia 56.8143
rfoot -11.0126 -5.65365
rtoes -1.28927
lfemur -1.14674 -0.137861 -28.5687
ltibia 26.6504
lfoot -16.522 0.96409
ltoes 4.39428
360
root 5.71735 17.7998 37.1519 -1.92561 -2.05291 2.55703
lowerback 11.3207 -0.56235 -2.5567
upperback 0.67866 -1.02547 0.827802
thorax -5.58149 -0.430582 2.47409
lowerneck -15.7956 -2.54981 -2.46008
upperneck 18.2113 -3.09641 0.897219
head 8.31829 -1.54477 0.34261
rclavicle 6.4605e-016 5.56597e-015
rhumerus -30.3655 -21.7092 -78.4539
rradius 25.8061
rwrist 5.64536
rhand -15.4496 23.0176
rfingers 7.12502
rthumb 10.7311 -6.68834
lclavicle 6.4605e-016 5.56597e-015
lhumerus -27.559 -5.10838 81.8269
lradius 31.9193
lwrist 7.88873
lhand -26.9083 24.6883
lfingers 7.12502
lthumb -0.331564 54.6678
rfemur -31.9609 -1.61968 20.0424
rtibia 54.2379
rfoot -10.6727 -6.08583
rtoes -1.48221
lfemur -0.10583 -0.0484387 -28.8391
ltibia 25.7205
lfoot -16.6346 1.19634
ltoes 2.62646
